# 3ds Max Wavefront OBJ Exporter v0.97b - (c)2007 guruware
# ì¬‚µ‚½ƒtƒ@ƒCƒ‹ : 07.12.2018 12:01:35

mtllib wood_BOX_LOW.mtl

#
# object Box002
#

v  -37.2858 9.4210 37.2858
v  -37.2858 9.4210 -37.2858
v  37.2858 9.4210 -37.2858
v  37.2858 9.4210 37.2858
v  -41.5730 90.5790 39.1191
v  37.2858 90.5790 39.1191
v  37.2858 90.5790 -38.3424
v  -41.5730 90.5790 -38.3424
v  -37.2858 12.7142 40.5790
v  37.2858 12.7142 40.5790
v  37.2858 67.7530 40.5790
v  -37.2858 67.7530 40.5790
v  40.5790 12.7142 37.2858
v  40.5790 12.7142 -37.2858
v  40.5790 67.7530 -37.2858
v  40.5790 67.7530 37.2858
v  37.2858 12.7142 -40.5790
v  -37.2858 12.7142 -40.5790
v  -37.2858 67.7530 -40.5790
v  37.2858 67.7530 -40.5790
v  -40.5790 12.7142 -37.2858
v  -40.5790 12.7142 37.2858
v  -40.5790 67.7530 37.2858
v  -40.5790 67.7530 -37.2858
v  -50.0000 0.0000 50.0000
v  -50.0000 0.0000 -50.0000
v  -37.2858 0.0000 -37.2858
v  -37.2858 0.0000 37.2858
v  50.0000 0.0000 -50.0000
v  37.2858 0.0000 -37.2858
v  50.0000 0.0000 50.0000
v  37.2858 0.0000 37.2858
v  -54.2872 100.0000 51.8333
v  50.0000 100.0000 51.8333
v  37.2858 100.0000 39.1191
v  -41.5730 100.0000 39.1191
v  50.0000 100.0000 -51.0566
v  37.2858 100.0000 -38.3424
v  -54.2872 100.0000 -51.0566
v  -41.5730 100.0000 -38.3424
v  37.2858 12.7142 50.0000
v  -37.2858 12.7142 50.0000
v  50.0000 67.7530 50.0000
v  37.2858 67.7530 50.0000
v  -41.5730 87.2858 51.0672
v  37.2858 87.2858 51.0672
v  -50.0000 67.7530 50.0000
v  -37.2858 67.7530 50.0000
v  50.0000 12.7142 -37.2858
v  50.0000 12.7142 37.2858
v  50.0000 67.7530 -50.0000
v  50.0000 67.7530 -37.2858
v  50.0000 87.2858 39.1191
v  50.0000 87.2858 -38.3424
v  50.0000 67.7530 37.2858
v  -37.2858 12.7142 -50.0000
v  37.2858 12.7142 -50.0000
v  -50.0000 67.7530 -50.0000
v  -37.2858 67.7530 -50.0000
v  37.2858 87.2858 -50.6320
v  -41.5730 87.2858 -50.6320
v  37.2858 67.7530 -50.0000
v  -50.0000 12.7142 37.2858
v  -50.0000 12.7142 -37.2858
v  -50.0000 67.7530 37.2858
v  -52.5673 87.2858 -38.3424
v  -52.5673 87.2858 39.1191
v  -50.0000 67.7530 -37.2858
v  -41.5730 87.2858 42.4124
v  37.2858 87.2858 42.4124
v  40.5790 87.2858 39.1191
v  40.5790 87.2858 -38.3424
v  37.2858 87.2858 -41.6357
v  -41.5730 87.2858 -41.6357
v  -44.8662 87.2858 -38.3424
v  -44.8662 87.2858 39.1191
# 76 vertices

vn 0.5774 -0.5774 -0.5774
vn 0.5774 -0.5774 0.5774
vn -0.5774 -0.5774 0.5774
vn -0.5774 -0.5774 -0.5774
vn 0.5774 0.5774 -0.5774
vn -0.5774 0.5774 -0.5774
vn -0.5774 0.5774 0.5774
vn 0.5774 0.5774 0.5774
vn -0.6967 -0.0336 0.7165
vn 0.6688 0.0333 0.7427
vn 0.7132 0.0189 0.7007
vn 0.7178 0.0326 -0.6955
vn 0.6723 0.0504 -0.7386
vn -0.7011 -0.0193 -0.7128
vn -0.7370 -0.0530 -0.6738
vn -0.7321 -0.0638 0.6782
vn 0.3015 -0.9045 0.3015
vn 0.3015 -0.9045 -0.3015
vn -0.3015 -0.9045 0.3015
vn -0.3015 -0.9045 -0.3015
vn -0.6140 0.5267 0.5878
vn 0.5741 0.5618 0.5957
vn -0.3015 0.9045 -0.3015
vn 0.3015 0.9045 -0.3015
vn 0.5756 0.5686 -0.5877
vn -0.3015 0.9045 0.3015
vn -0.6159 0.5329 -0.5803
vn 0.3015 0.9045 0.3015
vn -0.3015 0.3015 0.9045
vn 0.3015 0.3015 0.9045
vn 0.7136 -0.0199 0.7003
vn -0.7133 -0.0191 0.7006
vn 0.2797 -0.2840 0.9171
vn -0.2898 -0.3488 0.8913
vn -0.6959 -0.0680 0.7149
vn 0.7322 0.0636 0.6781
vn 0.9045 0.3015 0.3015
vn 0.9045 0.3015 -0.3015
vn 0.7109 -0.0115 -0.7032
vn 0.7011 0.0193 0.7128
vn 0.9153 -0.2712 -0.2978
vn 0.9108 -0.2839 0.2997
vn 0.6967 0.0336 -0.7165
vn 0.3015 0.3015 -0.9045
vn -0.3015 0.3015 -0.9045
vn -0.6934 -0.0586 -0.7181
vn 0.7295 0.0697 -0.6804
vn -0.2937 -0.3289 -0.8976
vn 0.2823 -0.2626 -0.9227
vn -0.7108 -0.0114 -0.7033
vn -0.9045 0.3015 -0.3015
vn -0.9045 0.3015 0.3015
vn -0.6810 -0.0076 -0.7322
vn -0.8785 -0.3947 0.2692
vn -0.8836 -0.3840 -0.2680
vn -0.6849 -0.0236 0.7282
vn 0.6491 -0.5362 0.5396
vn -0.5824 -0.6010 0.5473
vn 0.5726 -0.5520 -0.6062
vn 0.5746 -0.5629 0.5942
vn -0.5802 -0.5912 -0.5601
vn 0.6461 -0.5280 -0.5512
vn -0.5050 -0.6130 0.6076
vn -0.5042 -0.6006 -0.6205
# 64 vertex normals

vt 0.5285 0.7077 0.0000
vt 0.5285 0.5198 0.0000
vt 0.7164 0.5198 0.0000
vt 0.7164 0.7077 0.0000
vt 0.7612 0.2828 0.0000
vt 0.9599 0.2828 0.0000
vt 0.9599 0.4780 0.0000
vt 0.7612 0.4780 0.0000
vt 0.7733 0.5283 0.0000
vt 0.9612 0.5286 0.0000
vt 0.9612 0.6671 0.0000
vt 0.7733 0.6673 0.0000
vt 0.5456 0.7698 0.0000
vt 0.7334 0.7699 0.0000
vt 0.7335 0.9087 0.0000
vt 0.5454 0.9087 0.0000
vt 0.2963 0.7698 0.0000
vt 0.4842 0.7705 0.0000
vt 0.4838 0.9097 0.0000
vt 0.2957 0.9083 0.0000
vt 0.7872 0.7742 0.0000
vt 0.9752 0.7741 0.0000
vt 0.9750 0.9124 0.0000
vt 0.7875 0.9124 0.0000
vt 0.2720 0.5068 0.0000
vt 0.2720 0.2548 0.0000
vt 0.3040 0.2868 0.0000
vt 0.3040 0.4747 0.0000
vt 0.5240 0.2548 0.0000
vt 0.4920 0.2868 0.0000
vt 0.5240 0.5068 0.0000
vt 0.4920 0.4747 0.0000
vt 0.0005 0.0005 0.0000
vt 0.2633 0.0005 0.0000
vt 0.2313 0.0325 0.0000
vt 0.0325 0.0325 0.0000
vt 0.2633 0.2598 0.0000
vt 0.2313 0.2277 0.0000
vt 0.0005 0.2598 0.0000
vt 0.0325 0.2277 0.0000
vt 0.7339 0.0005 0.0000
vt 0.9859 0.0035 0.0000
vt 0.9535 0.0351 0.0000
vt 0.7656 0.0329 0.0000
vt 0.9839 0.1742 0.0000
vt 0.9519 0.1738 0.0000
vt 0.9830 0.2556 0.0000
vt 0.7202 0.2525 0.0000
vt 0.7526 0.2208 0.0000
vt 0.9513 0.2231 0.0000
vt 0.7319 0.1712 0.0000
vt 0.7640 0.1716 0.0000
vt 0.2723 0.0005 0.0000
vt 0.5243 0.0005 0.0000
vt 0.4923 0.0325 0.0000
vt 0.3043 0.0325 0.0000
vt 0.5243 0.1712 0.0000
vt 0.4923 0.1712 0.0000
vt 0.5270 0.2525 0.0000
vt 0.2677 0.2525 0.0000
vt 0.2997 0.2205 0.0000
vt 0.4949 0.2205 0.0000
vt 0.2723 0.1712 0.0000
vt 0.3043 0.1712 0.0000
vt 0.0048 0.7293 0.0000
vt 0.2568 0.7245 0.0000
vt 0.2253 0.7571 0.0000
vt 0.0374 0.7607 0.0000
vt 0.2599 0.8952 0.0000
vt 0.2279 0.8958 0.0000
vt 0.2723 0.9763 0.0000
vt 0.0095 0.9813 0.0000
vt 0.0410 0.9486 0.0000
vt 0.2396 0.9448 0.0000
vt 0.0080 0.9000 0.0000
vt 0.0400 0.8994 0.0000
vt 0.0032 0.2634 0.0000
vt 0.2552 0.2634 0.0000
vt 0.2231 0.2954 0.0000
vt 0.0352 0.2954 0.0000
vt 0.2552 0.4341 0.0000
vt 0.2231 0.4341 0.0000
vt 0.2598 0.5161 0.0000
vt 0.0005 0.5161 0.0000
vt 0.0325 0.4838 0.0000
vt 0.2277 0.4838 0.0000
vt 0.0032 0.4341 0.0000
vt 0.0352 0.4341 0.0000
vt 0.5047 0.7077 0.0000
vt 0.5047 0.5198 0.0000
vt 0.5285 0.4961 0.0000
vt 0.7164 0.4961 0.0000
vt 0.7401 0.5198 0.0000
vt 0.7401 0.7077 0.0000
vt 0.7164 0.7315 0.0000
vt 0.5285 0.7315 0.0000
vt 0.7612 0.2591 0.0000
vt 0.9599 0.2591 0.0000
vt 0.9836 0.2828 0.0000
vt 0.9836 0.4780 0.0000
vt 0.9599 0.5017 0.0000
vt 0.7612 0.5017 0.0000
vt 0.7374 0.4780 0.0000
vt 0.7374 0.2828 0.0000
vt 0.7733 0.5047 0.0000
vt 0.9612 0.5047 0.0000
vt 0.9849 0.5288 0.0000
vt 0.9848 0.6680 0.0000
vt 0.9619 0.7386 0.0000
vt 0.7631 0.7386 0.0000
vt 0.7632 0.7170 0.0000
vt 0.9619 0.7165 0.0000
vt 0.7417 0.7152 0.0000
vt 0.7495 0.6661 0.0000
vt 0.5455 0.7460 0.0000
vt 0.7335 0.7461 0.0000
vt 0.7571 0.7698 0.0000
vt 0.7574 0.9082 0.0000
vt 0.7362 0.9819 0.0000
vt 0.5410 0.9820 0.0000
vt 0.5411 0.9582 0.0000
vt 0.7361 0.9581 0.0000
vt 0.5176 0.9565 0.0000
vt 0.5215 0.9078 0.0000
vt 0.2964 0.7460 0.0000
vt 0.4843 0.7468 0.0000
vt 0.5078 0.7704 0.0000
vt 0.5077 0.9082 0.0000
vt 0.4932 0.9824 0.0000
vt 0.2945 0.9801 0.0000
vt 0.2948 0.9574 0.0000
vt 0.4934 0.9597 0.0000
vt 0.2721 0.9581 0.0000
vt 0.2720 0.9087 0.0000
vt 0.7872 0.7504 0.0000
vt 0.9752 0.7504 0.0000
vt 0.9991 0.7744 0.0000
vt 0.9984 0.9138 0.0000
vt 0.9797 0.9818 0.0000
vt 0.7845 0.9818 0.0000
vt 0.7843 0.9624 0.0000
vt 0.9799 0.9624 0.0000
vt 0.7647 0.9648 0.0000
vt 0.7642 0.9142 0.0000
vt 0.9839 0.7178 0.0000
vt 0.7495 0.5281 0.0000
vt 0.7597 0.9571 0.0000
vt 0.5219 0.7696 0.0000
vt 0.5155 0.9572 0.0000
vt 0.2725 0.7697 0.0000
vt 0.9995 0.9643 0.0000
vt 0.7633 0.7745 0.0000
# 152 texture coords

o Box002
g Box002
usemtl wire_140088225
f 1/1/1 2/2/2 3/3/3 4/4/4 
f 5/5/5 6/6/6 7/7/7 8/8/8 
f 9/9/8 10/10/7 11/11/9 12/12/10 
f 13/13/5 14/14/8 15/15/11 16/16/12 
f 17/17/6 18/18/5 19/19/13 20/20/14 
f 21/21/7 22/22/6 23/23/15 24/24/16 
f 25/25/3 26/26/4 27/27/17 28/28/18 
f 26/26/4 29/29/1 30/30/19 27/27/17 
f 29/29/1 31/31/2 32/32/20 30/30/19 
f 31/31/2 25/25/3 28/28/18 32/32/20 
f 33/33/21 34/34/22 35/35/23 36/36/24 
f 34/34/22 37/37/25 38/38/26 35/35/23 
f 37/37/25 39/39/27 40/40/28 38/38/26 
f 39/39/27 33/33/21 36/36/24 40/40/28 
f 25/41/3 31/42/2 41/43/29 42/44/30 
f 31/42/2 43/45/31 44/46/32 41/43/29 
f 34/47/22 33/48/21 45/49/33 46/50/34 
f 33/48/21 47/51/35 48/52/36 45/49/33 
f 31/53/2 29/54/1 49/55/37 50/56/38 
f 29/54/1 51/57/39 52/58/40 49/55/37 
f 37/59/25 34/60/22 53/61/41 54/62/42 
f 34/60/22 43/63/31 55/64/43 53/61/41 
f 29/65/1 26/66/4 56/67/44 57/68/45 
f 26/66/4 58/69/46 59/70/47 56/67/44 
f 39/71/27 37/72/25 60/73/48 61/74/49 
f 37/72/25 51/75/39 62/76/50 60/73/48 
f 26/77/4 25/78/3 63/79/51 64/80/52 
f 25/78/3 47/81/35 65/82/53 63/79/51 
f 33/83/21 39/84/27 66/85/54 67/86/55 
f 39/84/27 58/87/46 68/88/56 66/85/54 
f 28/89/18 27/90/17 2/2/2 1/1/1 
f 27/91/17 30/92/19 3/3/3 2/2/2 
f 30/93/19 32/94/20 4/4/4 3/3/3 
f 32/95/20 28/96/18 1/1/1 4/4/4 
f 36/97/24 35/98/23 6/6/6 5/5/5 
f 35/99/23 38/100/26 7/7/7 6/6/6 
f 38/101/26 40/102/28 8/8/8 7/7/7 
f 40/103/28 36/104/24 5/5/5 8/8/8 
f 42/105/30 41/106/29 10/10/7 9/9/8 
f 41/107/29 44/108/32 11/11/9 10/10/7 
f 46/109/34 45/110/33 69/111/57 70/112/58 
f 45/113/33 48/114/36 12/12/10 69/111/57 
f 50/115/38 49/116/37 14/14/8 13/13/5 
f 49/117/37 52/118/40 15/15/11 14/14/8 
f 54/119/42 53/120/41 71/121/59 72/122/60 
f 53/123/41 55/124/43 16/16/12 71/121/59 
f 57/125/45 56/126/44 18/18/5 17/17/6 
f 56/127/44 59/128/47 19/19/13 18/18/5 
f 61/129/49 60/130/48 73/131/61 74/132/62 
f 60/133/48 62/134/50 20/20/14 73/131/61 
f 64/135/52 63/136/51 22/22/6 21/21/7 
f 63/137/51 65/138/53 23/23/15 22/22/6 
f 67/139/55 66/140/54 75/141/63 76/142/64 
f 66/143/54 68/144/56 24/24/16 75/141/63 
f 11/11/9 70/112/58 69/111/57 12/12/10 
f 15/15/11 72/122/60 71/121/59 16/16/12 
f 19/19/13 74/132/62 73/131/61 20/20/14 
f 23/23/15 76/142/64 75/141/63 24/24/16 
f 43/45/31 34/47/22 46/50/34 44/46/32 
f 47/51/35 25/41/3 42/44/30 48/52/36 
f 51/57/39 37/59/25 54/62/42 52/58/40 
f 43/63/31 31/53/2 50/56/38 55/64/43 
f 58/69/46 39/71/27 61/74/49 59/70/47 
f 51/75/39 29/65/1 57/68/45 62/76/50 
f 47/81/35 33/83/21 67/86/55 65/82/53 
f 58/87/46 26/77/4 64/80/52 68/88/56 
f 44/108/32 46/145/34 70/112/58 11/11/9 
f 48/114/36 42/146/30 9/9/8 12/12/10 
f 52/118/40 54/147/42 72/122/60 15/15/11 
f 55/124/43 50/148/38 13/13/5 16/16/12 
f 59/128/47 61/149/49 74/132/62 19/19/13 
f 62/134/50 57/150/45 17/17/6 20/20/14 
f 65/138/53 67/151/55 76/142/64 23/23/15 
f 68/144/56 64/152/52 21/21/7 24/24/16 
# 74 polygons

