# 3ds Max Wavefront OBJ Exporter v0.97b - (c)2007 guruware
# ì¬‚µ‚½ƒtƒ@ƒCƒ‹ : 07.12.2018 15:10:22

mtllib iron_BOX.mtl

#
# object Box001
#

v  -47.8011 0.0000 47.8011
v  -47.8011 0.0000 -47.8011
v  47.8011 0.0000 -47.8011
v  47.8011 0.0000 47.8011
v  -47.8011 100.0000 47.8011
v  47.8011 100.0000 47.8011
v  47.8011 100.0000 -47.8011
v  -47.8011 100.0000 -47.8011
v  -47.8011 2.1989 50.0000
v  47.8011 2.1989 50.0000
v  47.8011 97.8011 50.0000
v  -47.8011 97.8011 50.0000
v  50.0000 2.1989 47.8011
v  50.0000 2.1989 -47.8011
v  50.0000 97.8011 -47.8011
v  50.0000 97.8011 47.8011
v  47.8011 2.1989 -50.0000
v  -47.8011 2.1989 -50.0000
v  -47.8011 97.8011 -50.0000
v  47.8011 97.8011 -50.0000
v  -50.0000 2.1989 -47.8011
v  -50.0000 2.1989 47.8011
v  -50.0000 97.8011 47.8011
v  -50.0000 97.8011 -47.8011
# 24 vertices

vn -0.3416 -0.8756 0.3416
vn -0.3416 -0.8756 -0.3416
vn 0.3416 -0.8756 -0.3416
vn 0.3416 -0.8756 0.3416
vn -0.3416 0.8756 0.3416
vn 0.3416 0.8756 0.3416
vn 0.3416 0.8756 -0.3416
vn -0.3416 0.8756 -0.3416
vn -0.3416 -0.3416 0.8756
vn 0.3416 -0.3416 0.8756
vn 0.3416 0.3416 0.8756
vn -0.3416 0.3416 0.8756
vn 0.8756 -0.3416 0.3416
vn 0.8756 -0.3416 -0.3416
vn 0.8756 0.3416 -0.3416
vn 0.8756 0.3416 0.3416
vn 0.3416 -0.3416 -0.8756
vn -0.3416 -0.3416 -0.8756
vn -0.3416 0.3416 -0.8756
vn 0.3416 0.3416 -0.8756
vn -0.8756 -0.3416 -0.3416
vn -0.8756 -0.3416 0.3416
vn -0.8756 0.3416 0.3416
vn -0.8756 0.3416 -0.3416
# 24 vertex normals

vt 0.2942 0.0005 0.0000
vt 0.4249 0.2942 0.0000
vt 0.1312 0.4249 0.0000
vt 0.0005 0.1312 0.0000
vt 0.3369 0.6690 0.0000
vt 0.6583 0.6690 0.0000
vt 0.6583 0.9904 0.0000
vt 0.3369 0.9904 0.0000
vt 0.0138 0.6699 0.0000
vt 0.3353 0.6699 0.0000
vt 0.3353 0.9914 0.0000
vt 0.0138 0.9914 0.0000
vt 0.6780 0.3326 0.0000
vt 0.9995 0.3326 0.0000
vt 0.9995 0.6541 0.0000
vt 0.6780 0.6541 0.0000
vt 0.6780 0.6562 0.0000
vt 0.9995 0.6562 0.0000
vt 0.9995 0.9777 0.0000
vt 0.6780 0.9777 0.0000
vt 0.6780 0.0057 0.0000
vt 0.9995 0.0057 0.0000
vt 0.9995 0.3272 0.0000
vt 0.6780 0.3272 0.0000
vt 0.0048 0.6752 0.0000
vt 0.0048 0.6647 0.0000
vt 0.4050 0.2304 0.0000
vt 0.4140 0.2356 0.0000
vt 0.4050 0.2409 0.0000
vt 0.6690 0.0110 0.0000
vt 0.6690 0.0005 0.0000
vt 0.1302 0.4353 0.0000
vt 0.1217 0.4293 0.0000
vt 0.0048 0.9966 0.0000
vt 0.0048 0.9862 0.0000
vt 0.6690 0.6593 0.0000
vt 0.6690 0.6489 0.0000
vt 0.6690 0.3324 0.0000
vt 0.6690 0.3220 0.0000
vt 0.6690 0.9829 0.0000
vt 0.6690 0.9724 0.0000
vt 0.9995 0.0162 0.0000
vt 0.6780 0.0162 0.0000
vt 0.9995 0.6667 0.0000
vt 0.6780 0.6667 0.0000
vt 0.9995 0.3431 0.0000
vt 0.6780 0.3431 0.0000
vt 0.3353 0.6804 0.0000
vt 0.0138 0.6804 0.0000
vt 0.0138 0.9810 0.0000
vt 0.3353 0.9810 0.0000
vt 0.6780 0.6436 0.0000
vt 0.9995 0.6436 0.0000
vt 0.6780 0.9672 0.0000
vt 0.9995 0.9672 0.0000
vt 0.6780 0.3167 0.0000
vt 0.9995 0.3167 0.0000
vt 0.6885 0.3326 0.0000
vt 0.6885 0.6541 0.0000
vt 0.9890 0.3272 0.0000
vt 0.9890 0.0057 0.0000
vt 0.6885 0.6562 0.0000
vt 0.6885 0.9777 0.0000
vt 0.6885 0.0057 0.0000
vt 0.6885 0.3272 0.0000
# 65 texture coords

o Box001
g Box001
usemtl wire_006135113
f 1/1/1 2/2/2 3/3/3 4/4/4 
f 5/5/5 6/6/6 7/7/7 8/8/8 
f 9/9/9 10/10/10 11/11/11 12/12/12 
f 13/13/13 14/14/14 15/15/15 16/16/16 
f 17/17/17 18/18/18 19/19/19 20/20/20 
f 21/21/21 22/22/22 23/23/23 24/24/24 
f 9/9/9 22/25/22 1/26/1 
f 4/27/4 13/28/13 10/29/10 
f 21/21/21 18/30/18 2/31/2 
f 3/3/3 17/32/17 14/33/14 
f 12/12/12 5/34/5 23/35/23 
f 16/16/16 6/36/6 11/37/11 
f 24/24/24 8/38/8 19/39/19 
f 20/20/20 7/40/7 15/41/15 
f 1/42/1 22/22/22 21/21/21 2/43/2 
f 2/44/2 18/18/18 17/17/17 3/45/3 
f 3/46/3 14/14/14 13/13/13 4/47/4 
f 4/48/4 10/10/10 9/9/9 1/49/1 
f 5/50/5 12/12/12 11/11/11 6/51/6 
f 6/52/6 16/16/16 15/15/15 7/53/7 
f 7/54/7 20/20/20 19/19/19 8/55/8 
f 8/56/8 24/24/24 23/23/23 5/57/5 
f 10/58/10 13/13/13 16/16/16 11/59/11 
f 12/60/12 23/23/23 22/22/22 9/61/9 
f 14/62/14 17/17/17 20/20/20 15/63/15 
f 18/64/18 21/21/21 24/24/24 19/65/19 
# 18 polygons - 8 triangles

